<svg xmlns="http://www.w3.org/2000/svg" width="1200" height="630" viewBox="0 0 1200 630" role="img" aria-label="PlayWeld"><defs><linearGradient id="bg" x2="1" y2="1"><stop stop-color="#120D1E"/><stop offset="1" stop-color="#281A42"/></linearGradient><pattern id="grid" width="64" height="64" patternUnits="userSpaceOnUse"><path d="M64 0H0V64" fill="none" stroke="#B59FD2" stroke-opacity=".08"/></pattern></defs><rect width="1200" height="630" fill="url(#bg)"/><rect width="1200" height="630" fill="url(#grid)"/><g transform="translate(840 94.5) scale(0.882)" opacity=".08"><path fill="#BAFF2C" d="M48 160H120L176 300L232 160H280L336 300L392 160H464L362 400H310L256 272L202 400H150Z"/><path fill="#BAFF2C" d="M256 32L273 84L320 100L273 116L256 168L239 116L192 100L239 84Z"/></g><g transform="translate(72 126) scale(0.63)"><path fill="#BAFF2C" d="M48 160H120L176 300L232 160H280L336 300L392 160H464L362 400H310L256 272L202 400H150Z"/><path fill="#BAFF2C" d="M256 32L273 84L320 100L273 116L256 168L239 116L192 100L239 84Z"/></g><text x="437.4" y="321.3" fill="#F7F4FF" font-family="Segoe UI,Arial,sans-serif" font-size="119.7" font-weight="700" letter-spacing="-3">PlayWeld</text><text x="437.4" y="403.2" fill="#BFAED8" font-family="Segoe UI,Arial,sans-serif" font-size="34.65">Your game development workspace.</text><text x="437.4" y="497.70000000000005" fill="#BAFF2C" font-family="Segoe UI,Arial,sans-serif" font-size="28.349999999999998">playweld.com</text></svg>
